<?xml version="1.0" standalone="no"?>
<!DOCTYPE svg PUBLIC "-//W3C//DTD SVG 20010904//EN"
 "http://www.w3.org/TR/2001/REC-SVG-20010904/DTD/svg10.dtd">
<svg version="1.0" xmlns="http://www.w3.org/2000/svg"
 width="218.000000pt" height="218.000000pt" viewBox="0 0 218.000000 218.000000"
 preserveAspectRatio="xMidYMid meet">
<metadata>
Created by potrace 1.14, written by Peter Selinger 2001-2017
</metadata>
<g transform="translate(0.000000,218.000000) scale(0.100000,-0.100000)"
fill="#000000" stroke="none">
<path d="M189 2073 c-1 -10 -1 -31 0 -46 1 -19 -3 -26 -10 -21 -8 5 -9 3 -3
-7 13 -22 14 -43 1 -51 -7 -5 -8 -8 -1 -8 12 0 13 -69 0 -89 -6 -10 -6 -12 2
-7 15 9 15 1 1 -26 -8 -15 -8 -19 0 -14 14 9 14 0 0 -26 -8 -15 -8 -19 0 -14
6 4 11 4 11 1 0 -4 -5 -16 -11 -27 -8 -15 -8 -19 0 -14 15 10 14 -7 -1 -22 -9
-9 -9 -12 1 -12 11 0 11 -3 0 -17 -10 -11 -10 -14 -1 -9 15 9 16 -6 0 -22 -9
-9 -9 -12 0 -12 7 0 12 -7 12 -16 0 -8 -4 -12 -10 -9 -5 3 -10 1 -10 -4 0 -6
5 -11 10 -11 6 0 10 -10 10 -22 0 -19 -2 -20 -10 -8 -6 9 -10 10 -10 3 0 -6 5
-15 10 -18 8 -5 7 -11 -1 -21 -9 -11 -8 -14 2 -14 10 0 10 -3 1 -12 -7 -7 -12
-17 -12 -22 0 -6 5 -4 10 4 9 13 10 13 10 -1 0 -8 -5 -20 -11 -26 -7 -7 -8
-17 -3 -25 13 -21 14 -41 1 -57 -9 -12 -9 -13 1 -7 15 9 15 1 1 -26 -8 -15 -8
-19 0 -14 14 9 14 0 0 -26 -8 -15 -8 -19 0 -14 14 9 14 0 0 -26 -6 -11 -7 -18
-2 -15 11 7 11 -103 0 -120 -5 -8 -3 -13 4 -13 10 0 10 -3 1 -12 -7 -7 -12
-17 -12 -23 0 -5 5 -3 10 5 8 13 10 13 10 -2 0 -9 -4 -20 -10 -23 -5 -3 -10
-12 -10 -18 0 -7 4 -6 10 3 9 13 10 13 10 0 0 -9 -5 -21 -12 -28 -8 -8 -8 -15
0 -25 9 -10 9 -16 0 -25 -9 -9 -9 -12 0 -12 7 0 12 -7 12 -16 0 -8 -4 -12 -10
-9 -6 3 -10 1 -10 -4 0 -6 5 -11 11 -11 8 0 7 -6 -2 -17 -10 -11 -10 -14 -1
-9 15 9 15 1 1 -26 -8 -15 -8 -19 0 -14 14 9 14 0 0 -26 -8 -15 -8 -19 0 -14
14 9 14 0 0 -26 -8 -15 -8 -19 0 -14 15 10 14 -7 -1 -22 -9 -9 -9 -12 1 -12
11 0 11 -3 0 -17 -10 -11 -10 -14 -1 -9 15 9 16 -6 0 -22 -9 -9 -9 -12 0 -12
7 0 12 -7 12 -16 0 -8 -4 -12 -10 -9 -6 3 -10 1 -10 -4 0 -6 5 -11 10 -11 6 0
10 -10 10 -22 0 -19 -2 -20 -10 -8 -6 9 -10 10 -10 3 0 -6 5 -15 10 -18 8 -5
7 -11 -1 -21 -8 -10 -8 -14 0 -14 6 0 11 -7 11 -16 0 -8 -4 -12 -10 -9 -5 3
-10 1 -10 -4 0 -6 3 -11 8 -11 4 0 8 -23 9 -50 1 -45 -1 -49 -16 -38 -14 12
-15 11 -1 -6 8 -10 15 -40 15 -67 0 -26 3 -51 7 -54 3 -3 410 -6 903 -6 690 0
900 3 909 12 8 9 8 10 0 6 -8 -5 -11 30 -10 121 1 89 4 127 13 127 6 0 15 3
19 7 3 4 -2 6 -13 4 -16 -4 -20 1 -20 20 0 19 2 22 12 14 10 -8 15 -8 21 1 4
7 3 9 -3 6 -6 -4 -16 0 -23 8 -10 12 -10 15 1 15 9 0 10 3 3 8 -14 9 -12 77 3
77 6 0 15 3 19 7 3 4 -3 6 -15 3 -16 -3 -21 1 -21 16 0 11 4 18 9 14 5 -3 13
-1 16 5 4 6 1 9 -7 8 -9 -2 -13 12 -13 52 0 35 4 55 12 55 6 0 15 3 19 7 3 4
-2 6 -14 3 -19 -3 -20 1 -18 58 1 34 6 68 10 76 6 10 5 12 -2 7 -16 -9 -15 7
0 22 9 9 9 15 0 24 -16 16 -15 31 1 22 9 -6 9 -4 1 7 -16 20 -12 113 6 135 14
17 13 18 -1 6 -14 -11 -16 -9 -16 13 0 14 5 25 11 25 8 0 8 2 0 8 -14 9 -14
43 0 61 8 11 8 13 -1 8 -14 -9 -13 75 2 85 7 5 6 8 0 8 -15 0 -16 40 -2 40 7
0 6 4 -3 10 -13 9 -13 11 0 20 10 6 11 10 3 10 -7 0 -13 5 -13 11 0 5 6 7 13
3 10 -6 10 -4 0 7 -16 16 -17 33 -1 23 8 -5 8 -3 2 7 -13 20 -13 179 0 179 8
0 8 3 0 8 -14 9 -14 43 0 61 7 9 7 12 0 9 -6 -4 -10 6 -11 28 -1 19 4 34 10
34 8 0 7 4 -2 9 -9 6 -10 11 -2 15 6 4 8 13 4 19 -5 7 -8 41 -8 77 l-1 65
-902 3 c-854 2 -902 1 -903 -15z"/>
<path d="M2036 2022 c-3 -5 1 -9 9 -9 8 0 12 4 9 9 -3 4 -7 8 -9 8 -2 0 -6 -4
-9 -8z"/>
<path d="M2010 1721 c0 -6 4 -13 10 -16 6 -3 7 1 4 9 -7 18 -14 21 -14 7z"/>
<path d="M2036 1353 c-6 -14 -5 -15 5 -6 7 7 10 15 7 18 -3 3 -9 -2 -12 -12z"/>
<path d="M155 1201 c-3 -5 -2 -12 3 -15 5 -3 9 1 9 9 0 17 -3 19 -12 6z"/>
<path d="M2015 920 c-3 -5 -1 -10 4 -10 6 0 11 5 11 10 0 6 -2 10 -4 10 -3 0
-8 -4 -11 -10z"/>
<path d="M2010 839 c0 -5 5 -7 10 -4 6 3 10 8 10 11 0 2 -4 4 -10 4 -5 0 -10
-5 -10 -11z"/>
<path d="M2010 800 c0 -5 5 -10 11 -10 5 0 7 5 4 10 -3 6 -8 10 -11 10 -2 0
-4 -4 -4 -10z"/>
<path d="M2010 679 c0 -5 5 -7 10 -4 6 3 10 8 10 11 0 2 -4 4 -10 4 -5 0 -10
-5 -10 -11z"/>
<path d="M2015 529 c-4 -6 -5 -12 -2 -15 2 -3 7 2 10 11 7 17 1 20 -8 4z"/>
<path d="M2010 481 c0 -6 4 -13 10 -16 6 -3 7 1 4 9 -7 18 -14 21 -14 7z"/>
<path d="M1226 258 c3 -5 10 -6 15 -3 13 9 11 12 -6 12 -8 0 -12 -4 -9 -9z"/>
</g>
</svg>
